<?xml version="1.0" standalone="no"?>
<!DOCTYPE svg PUBLIC "-//W3C//DTD SVG 20010904//EN"
 "http://www.w3.org/TR/2001/REC-SVG-20010904/DTD/svg10.dtd">
<svg version="1.0" xmlns="http://www.w3.org/2000/svg"
 width="240.000000pt" height="240.000000pt" viewBox="0 0 240.000000 240.000000"
 preserveAspectRatio="xMidYMid meet">
<metadata>
Created by potrace 1.11, written by Peter Selinger 2001-2013
</metadata>
<g transform="translate(0.000000,240.000000) scale(0.100000,-0.100000)"
fill="#000000" stroke="none">
<path d="M225 2255 l-25 -24 0 -1014 0 -1014 23 -21 23 -22 955 0 956 0 21 23
22 23 0 1013 0 1012 -25 24 -24 25 -951 0 -951 0 -24 -25z m816 -361 c-10 -12
-78 -86 -152 -164 -74 -78 -134 -146 -134 -150 0 -5 61 -73 135 -151 183 -193
175 -181 146 -208 l-22 -21 -140 148 c-77 81 -157 166 -178 190 l-38 42 38 43
c21 23 101 108 178 189 l140 148 22 -21 c23 -21 23 -22 5 -45z m-471 -314 c0
-260 -2 -300 -15 -300 -13 0 -15 40 -15 300 0 260 2 300 15 300 13 0 15 -40
15 -300z m1090 -340 l0 -30 -230 0 -230 0 0 30 0 30 230 0 230 0 0 -30z"/>
</g>
</svg>
